<?xml version="1.0" encoding="UTF-8" standalone="no"?>
<!DOCTYPE svg PUBLIC "-//W3C//DTD SVG 1.1//EN"
 "http://www.w3.org/Graphics/SVG/1.1/DTD/svg11.dtd">
<!-- Generated by graphviz version 2.38.0 (20140413.2041)
 -->
<!-- Title: G Pages: 1 -->
<svg width="456pt" height="260pt"
 viewBox="0.00 0.00 456.00 259.74" xmlns="http://www.w3.org/2000/svg" xmlns:xlink="http://www.w3.org/1999/xlink">
<g id="graph0" class="graph" transform="scale(1 1) rotate(0) translate(4 255.74)">
<title>G</title>
<polygon fill="white" stroke="none" points="-4,4 -4,-255.74 452,-255.74 452,4 -4,4"/>
<g id="clust1" class="cluster"><title>cluster_0</title>
<polygon fill="lightgrey" stroke="lightgrey" points="274,-64 274,-243.74 440,-243.74 440,-64 274,-64"/>
<text text-anchor="middle" x="357" y="-228.54" font-family="Times,serif" font-size="14.00">network namespace</text>
<text text-anchor="middle" x="357" y="-213.54" font-family="Times,serif" font-size="14.00">n0</text>
</g>
<g id="clust2" class="cluster"><title>cluster_1</title>
<polygon fill="none" stroke="blue" points="8,-64 8,-243.74 174,-243.74 174,-64 8,-64"/>
<text text-anchor="middle" x="91" y="-228.54" font-family="Times,serif" font-size="14.00">network namespace</text>
<text text-anchor="middle" x="91" y="-213.54" font-family="Times,serif" font-size="14.00">n1</text>
</g>
<!-- vethn0 -->
<g id="node1" class="node"><title>vethn0</title>
<ellipse fill="white" stroke="white" cx="357" cy="-98.8701" rx="74.9067" ry="26.7407"/>
<text text-anchor="middle" x="357" y="-102.67" font-family="Times,serif" font-size="14.00">veth&#45;n0</text>
<text text-anchor="middle" x="357" y="-87.6701" font-family="Times,serif" font-size="14.00">170.30.100.2/24</text>
</g>
<!-- veth&#45;p0 -->
<g id="node6" class="node"><title>veth&#45;p0</title>
<ellipse fill="none" stroke="black" cx="280" cy="-18" rx="37.8943" ry="18"/>
<text text-anchor="middle" x="280" y="-14.3" font-family="Times,serif" font-size="14.00">veth&#45;p0</text>
</g>
<!-- vethn0&#45;&gt;veth&#45;p0 -->
<g id="edge5" class="edge"><title>vethn0&#45;&gt;veth&#45;p0</title>
<path fill="none" stroke="black" d="M333.059,-73.3474C323.208,-63.2578 311.867,-51.6408 302.204,-41.7438"/>
<polygon fill="black" stroke="black" points="304.686,-39.2749 295.195,-34.5645 299.677,-44.165 304.686,-39.2749"/>
</g>
<!-- babeld0 -->
<g id="node2" class="node"><title>babeld0</title>
<ellipse fill="white" stroke="white" cx="357" cy="-179.74" rx="38.1938" ry="18"/>
<text text-anchor="middle" x="357" y="-176.04" font-family="Times,serif" font-size="14.00">babeld0</text>
</g>
<!-- babeld0&#45;&gt;vethn0 -->
<g id="edge1" class="edge"><title>babeld0&#45;&gt;vethn0</title>
<path fill="none" stroke="black" d="M357,-161.626C357,-154.137 357,-145.046 357,-136.168"/>
<polygon fill="black" stroke="black" points="360.5,-135.953 357,-125.953 353.5,-135.953 360.5,-135.953"/>
</g>
<!-- vethn1 -->
<g id="node3" class="node"><title>vethn1</title>
<ellipse fill="lightgrey" stroke="black" cx="91" cy="-98.8701" rx="74.9067" ry="26.7407"/>
<text text-anchor="middle" x="91" y="-102.67" font-family="Times,serif" font-size="14.00">veth&#45;n1</text>
<text text-anchor="middle" x="91" y="-87.6701" font-family="Times,serif" font-size="14.00">170.30.101.2/24</text>
</g>
<!-- veth&#45;p1 -->
<g id="node7" class="node"><title>veth&#45;p1</title>
<ellipse fill="none" stroke="black" cx="167" cy="-18" rx="37.8943" ry="18"/>
<text text-anchor="middle" x="167" y="-14.3" font-family="Times,serif" font-size="14.00">veth&#45;p1</text>
</g>
<!-- vethn1&#45;&gt;veth&#45;p1 -->
<g id="edge6" class="edge"><title>vethn1&#45;&gt;veth&#45;p1</title>
<path fill="none" stroke="black" d="M114.63,-73.3474C124.257,-63.3567 135.328,-51.8684 144.803,-42.0353"/>
<polygon fill="black" stroke="black" points="147.583,-44.194 152.002,-34.5645 142.543,-39.3368 147.583,-44.194"/>
</g>
<!-- babeld1 -->
<g id="node4" class="node"><title>babeld1</title>
<ellipse fill="lightgrey" stroke="black" cx="91" cy="-179.74" rx="38.1938" ry="18"/>
<text text-anchor="middle" x="91" y="-176.04" font-family="Times,serif" font-size="14.00">babeld1</text>
</g>
<!-- babeld1&#45;&gt;vethn1 -->
<g id="edge2" class="edge"><title>babeld1&#45;&gt;vethn1</title>
<path fill="none" stroke="black" d="M91,-161.626C91,-154.137 91,-145.046 91,-136.168"/>
<polygon fill="black" stroke="black" points="94.5001,-135.953 91,-125.953 87.5001,-135.953 94.5001,-135.953"/>
</g>
<!-- br&#45;babel -->
<g id="node5" class="node"><title>br&#45;babel</title>
<ellipse fill="none" stroke="black" cx="224" cy="-98.8701" rx="40.0939" ry="18"/>
<text text-anchor="middle" x="224" y="-95.1701" font-family="Times,serif" font-size="14.00">br&#45;babel</text>
</g>
<!-- br&#45;babel&#45;&gt;veth&#45;p0 -->
<g id="edge3" class="edge"><title>br&#45;babel&#45;&gt;veth&#45;p0</title>
<path fill="none" stroke="black" d="M235.603,-81.5281C243.337,-70.6358 253.648,-56.1143 262.386,-43.8074"/>
<polygon fill="black" stroke="black" points="265.476,-45.501 268.412,-35.321 259.768,-41.4484 265.476,-45.501"/>
</g>
<!-- br&#45;babel&#45;&gt;veth&#45;p1 -->
<g id="edge4" class="edge"><title>br&#45;babel&#45;&gt;veth&#45;p1</title>
<path fill="none" stroke="black" d="M212.19,-81.5281C204.241,-70.5301 193.619,-55.832 184.67,-43.4496"/>
<polygon fill="black" stroke="black" points="187.49,-41.3758 178.795,-35.321 181.816,-45.4761 187.49,-41.3758"/>
</g>
</g>
</svg>
